HIERARCHY
ROOT mixamorig:Hips
{
	OFFSET 0.000000 201.639420 0.000000
	CHANNELS 6 Xposition Yposition Zposition Xrotation Yrotation Zrotation
	JOINT mixamorig:Spine
	{
		OFFSET 0.006200 19.524994 -2.481800
		CHANNELS 3 Xrotation Yrotation Zrotation
		JOINT mixamorig:Spine1
		{
			OFFSET -0.000900 22.835007 -2.825400
			CHANNELS 3 Xrotation Yrotation Zrotation
			JOINT mixamorig:Spine2
			{
				OFFSET -0.020600 26.552490 -3.193300
				CHANNELS 3 Xrotation Yrotation Zrotation
				JOINT mixamorig:Neck
				{
					OFFSET -0.060000 30.701813 1.352200
					CHANNELS 3 Xrotation Yrotation Zrotation
					JOINT mixamorig:Head
					{
						OFFSET -0.087200 22.547607 3.670900
						CHANNELS 3 Xrotation Yrotation Zrotation
						JOINT mixamorig:HeadTop_End
						{
							OFFSET -0.830600 40.355194 7.893500
							CHANNELS 3 Xrotation Yrotation Zrotation
							End Site
							{
								OFFSET 0.000000 30.592346 0.000000
							}
						}
						JOINT mixamorig:RightEye
						{
							OFFSET -6.302100 18.118591 16.197100
							CHANNELS 3 Xrotation Yrotation Zrotation
							End Site
							{
								OFFSET 0.000000 30.592346 0.000000
							}
						}
						JOINT mixamorig:LeftEye
						{
							OFFSET 6.741500 18.382690 16.401899
							CHANNELS 3 Xrotation Yrotation Zrotation
							End Site
							{
								OFFSET 0.000000 30.592346 0.000000
							}
						}
					}
				}
				JOINT mixamorig:LeftShoulder
				{
					OFFSET 11.924900 18.230499 1.425400
					CHANNELS 3 Xrotation Yrotation Zrotation
					JOINT mixamorig:LeftArm
					{
						OFFSET 25.435989 -0.697632 -5.229300
						CHANNELS 3 Xrotation Yrotation Zrotation
						JOINT mixamorig:LeftForeArm
						{
							OFFSET 54.684776 0.000000 0.000000
							CHANNELS 3 Xrotation Yrotation Zrotation
							JOINT mixamorig:LeftHand
							{
								OFFSET 55.098175 0.000000 0.000000
								CHANNELS 3 Xrotation Yrotation Zrotation
								JOINT mixamorig:LeftHandMiddle1
								{
									OFFSET 23.369751 0.000000 0.000000
									CHANNELS 3 Xrotation Yrotation Zrotation
									JOINT mixamorig:LeftHandMiddle2
									{
										OFFSET 6.378677 0.000000 0.000000
										CHANNELS 3 Xrotation Yrotation Zrotation
										JOINT mixamorig:LeftHandMiddle3
										{
											OFFSET 6.148331 0.000000 0.000000
											CHANNELS 3 Xrotation Yrotation Zrotation
											JOINT mixamorig:LeftHandMiddle4
											{
												OFFSET 6.582504 0.000000 0.000000
												CHANNELS 3 Xrotation Yrotation Zrotation
												End Site
												{
													OFFSET -1.168900 6.395691 1.028606
												}
											}
										}
									}
								}
								JOINT mixamorig:LeftHandThumb1
								{
									OFFSET 7.235672 -3.848206 5.434273
									CHANNELS 3 Xrotation Yrotation Zrotation
									JOINT mixamorig:LeftHandThumb2
									{
										OFFSET 6.568451 -3.792297 3.792300
										CHANNELS 3 Xrotation Yrotation Zrotation
										JOINT mixamorig:LeftHandThumb3
										{
											OFFSET 6.063080 -3.500519 3.500518
											CHANNELS 3 Xrotation Yrotation Zrotation
											JOINT mixamorig:LeftHandThumb4
											{
												OFFSET 4.793182 -2.767334 2.767349
												CHANNELS 3 Xrotation Yrotation Zrotation
												End Site
												{
													OFFSET 0.101639 6.054260 1.275483
												}
											}
										}
									}
								}
								JOINT mixamorig:LeftHandIndex1
								{
									OFFSET 23.101074 -0.309540 4.992809
									CHANNELS 3 Xrotation Yrotation Zrotation
									JOINT mixamorig:LeftHandIndex2
									{
										OFFSET 6.226883 0.000000 0.000000
										CHANNELS 3 Xrotation Yrotation Zrotation
										JOINT mixamorig:LeftHandIndex3
										{
											OFFSET 6.094330 0.000000 0.000000
											CHANNELS 3 Xrotation Yrotation Zrotation
											JOINT mixamorig:LeftHandIndex4
											{
												OFFSET 5.482605 0.000000 0.000000
												CHANNELS 3 Xrotation Yrotation Zrotation
												End Site
												{
													OFFSET -1.427902 5.233032 0.797164
												}
											}
										}
									}
								}
								JOINT mixamorig:LeftHandRing1
								{
									OFFSET 22.299240 0.021149 -3.964172
									CHANNELS 3 Xrotation Yrotation Zrotation
									JOINT mixamorig:LeftHandRing2
									{
										OFFSET 6.321869 0.000000 0.000000
										CHANNELS 3 Xrotation Yrotation Zrotation
										JOINT mixamorig:LeftHandRing3
										{
											OFFSET 5.899796 0.000000 0.000000
											CHANNELS 3 Xrotation Yrotation Zrotation
											JOINT mixamorig:LeftHandRing4
											{
												OFFSET 6.517899 0.000000 0.000000
												CHANNELS 3 Xrotation Yrotation Zrotation
												End Site
												{
													OFFSET -1.637299 6.232208 0.980890
												}
											}
										}
									}
								}
								JOINT mixamorig:LeftHandPinky1
								{
									OFFSET 20.463791 -0.302338 -8.562233
									CHANNELS 3 Xrotation Yrotation Zrotation
									JOINT mixamorig:LeftHandPinky2
									{
										OFFSET 6.908646 0.000000 0.000000
										CHANNELS 3 Xrotation Yrotation Zrotation
										JOINT mixamorig:LeftHandPinky3
										{
											OFFSET 4.622849 0.000000 0.000000
											CHANNELS 3 Xrotation Yrotation Zrotation
											JOINT mixamorig:LeftHandPinky4
											{
												OFFSET 5.216080 0.000000 0.000000
												CHANNELS 3 Xrotation Yrotation Zrotation
												End Site
												{
													OFFSET -0.606308 5.116241 0.814926
												}
											}
										}
									}
								}
							}
						}
					}
				}
				JOINT mixamorig:RightShoulder
				{
					OFFSET -12.001300 18.284088 1.348900
					CHANNELS 3 Xrotation Yrotation Zrotation
					JOINT mixamorig:RightArm
					{
						OFFSET -25.308500 -0.751312 -5.164599
						CHANNELS 3 Xrotation Yrotation Zrotation
						JOINT mixamorig:RightForeArm
						{
							OFFSET -54.684429 0.000000 0.000000
							CHANNELS 3 Xrotation Yrotation Zrotation
							JOINT mixamorig:RightHand
							{
								OFFSET -55.150291 0.000000 0.000000
								CHANNELS 3 Xrotation Yrotation Zrotation
								JOINT mixamorig:RightHandMiddle1
								{
									OFFSET -23.317566 0.000000 0.000000
									CHANNELS 3 Xrotation Yrotation Zrotation
									JOINT mixamorig:RightHandMiddle2
									{
										OFFSET -6.378403 0.000000 0.000000
										CHANNELS 3 Xrotation Yrotation Zrotation
										JOINT mixamorig:RightHandMiddle3
										{
											OFFSET -6.148193 0.000000 0.000000
											CHANNELS 3 Xrotation Yrotation Zrotation
											JOINT mixamorig:RightHandMiddle4
											{
												OFFSET -6.583389 0.000000 0.000000
												CHANNELS 3 Xrotation Yrotation Zrotation
												End Site
												{
													OFFSET 1.171692 6.395905 1.029786
												}
											}
										}
									}
								}
								JOINT mixamorig:RightHandThumb1
								{
									OFFSET -7.190521 -3.860474 5.435846
									CHANNELS 3 Xrotation Yrotation Zrotation
									JOINT mixamorig:RightHandThumb2
									{
										OFFSET -6.567429 -3.791718 3.791708
										CHANNELS 3 Xrotation Yrotation Zrotation
										JOINT mixamorig:RightHandThumb3
										{
											OFFSET -6.062469 -3.500153 3.500166
											CHANNELS 3 Xrotation Yrotation Zrotation
											JOINT mixamorig:RightHandThumb4
											{
												OFFSET -4.792618 -2.767029 2.767022
												CHANNELS 3 Xrotation Yrotation Zrotation
												End Site
												{
													OFFSET -0.100327 6.053253 1.276754
												}
											}
										}
									}
								}
								JOINT mixamorig:RightHandIndex1
								{
									OFFSET -23.048981 -0.310791 4.992554
									CHANNELS 3 Xrotation Yrotation Zrotation
									JOINT mixamorig:RightHandIndex2
									{
										OFFSET -6.227539 0.000000 0.000000
										CHANNELS 3 Xrotation Yrotation Zrotation
										JOINT mixamorig:RightHandIndex3
										{
											OFFSET -6.095047 0.000000 0.000000
											CHANNELS 3 Xrotation Yrotation Zrotation
											JOINT mixamorig:RightHandIndex4
											{
												OFFSET -5.484772 0.000000 0.000000
												CHANNELS 3 Xrotation Yrotation Zrotation
												End Site
												{
													OFFSET 1.420593 5.237305 0.797056
												}
											}
										}
									}
								}
								JOINT mixamorig:RightHandRing1
								{
									OFFSET -22.246323 0.020569 -3.963762
									CHANNELS 3 Xrotation Yrotation Zrotation
									JOINT mixamorig:RightHandRing2
									{
										OFFSET -6.322128 0.000000 0.000000
										CHANNELS 3 Xrotation Yrotation Zrotation
										JOINT mixamorig:RightHandRing3
										{
											OFFSET -5.900024 0.000000 0.000000
											CHANNELS 3 Xrotation Yrotation Zrotation
											JOINT mixamorig:RightHandRing4
											{
												OFFSET -6.518356 0.000000 0.000000
												CHANNELS 3 Xrotation Yrotation Zrotation
												End Site
												{
													OFFSET 1.636398 6.232697 0.982186
												}
											}
										}
									}
								}
								JOINT mixamorig:RightHandPinky1
								{
									OFFSET -20.411011 -0.303314 -8.561701
									CHANNELS 3 Xrotation Yrotation Zrotation
									JOINT mixamorig:RightHandPinky2
									{
										OFFSET -6.907349 0.000000 0.000000
										CHANNELS 3 Xrotation Yrotation Zrotation
										JOINT mixamorig:RightHandPinky3
										{
											OFFSET -4.623840 0.000000 0.000000
											CHANNELS 3 Xrotation Yrotation Zrotation
											JOINT mixamorig:RightHandPinky4
											{
												OFFSET -5.218353 0.000000 0.000000
												CHANNELS 3 Xrotation Yrotation Zrotation
												End Site
												{
													OFFSET 0.602097 5.118835 0.816273
												}
											}
										}
									}
								}
							}
						}
					}
				}
			}
		}
	}
	JOINT mixamorig:LeftUpLeg
	{
		OFFSET 18.168400 -13.561905 -0.039000
		CHANNELS 3 Xrotation Yrotation Zrotation
		JOINT mixamorig:LeftLeg
		{
			OFFSET 0.577358 -80.825211 -3.695000
			CHANNELS 3 Xrotation Yrotation Zrotation
			JOINT mixamorig:LeftFoot
			{
				OFFSET -0.577356 -83.370262 -6.520700
				CHANNELS 3 Xrotation Yrotation Zrotation
				JOINT mixamorig:LeftToeBase
				{
					OFFSET 0.750401 -20.798306 25.135401
					CHANNELS 3 Xrotation Yrotation Zrotation
					JOINT mixamorig:LeftToe_End
					{
						OFFSET -0.000500 0.001200 19.917799
						CHANNELS 3 Xrotation Yrotation Zrotation
						End Site
						{
							OFFSET 0.000000 19.917805 0.000000
						}
					}
				}
			}
		}
	}
	JOINT mixamorig:RightUpLeg
	{
		OFFSET -18.162500 -13.585098 -0.041000
		CHANNELS 3 Xrotation Yrotation Zrotation
		JOINT mixamorig:RightLeg
		{
			OFFSET -0.595024 -80.945297 -3.631900
			CHANNELS 3 Xrotation Yrotation Zrotation
			JOINT mixamorig:RightFoot
			{
				OFFSET 0.595024 -83.218193 -6.561200
				CHANNELS 3 Xrotation Yrotation Zrotation
				JOINT mixamorig:RightToeBase
				{
					OFFSET -0.753601 -20.807106 25.115000
					CHANNELS 3 Xrotation Yrotation Zrotation
					JOINT mixamorig:RightToe_End
					{
						OFFSET 0.000299 0.001700 19.918200
						CHANNELS 3 Xrotation Yrotation Zrotation
						End Site
						{
							OFFSET 0.000000 19.918203 0.000000
						}
					}
				}
			}
		}
	}
}
MOTION
Frames: 4
Frame Time: 0.033333
-0.211802 177.578827 -1.339197 -0.252317 0.000885 -1.094392 16.586916 0.259836 0.371739 20.119702 0.476741 0.898172 12.592525 0.366354 0.927508 2.981582 -0.915414 0.127386 -21.725372 3.041509 -1.451460 0.000003 0.000000 0.000000 0.000003 0.000000 0.000000 0.000003 0.000000 0.000000 20.445792 -17.627810 8.704781 -33.570189 -17.336504 -36.862247 -2.632192 -52.139946 -20.394127 -54.784145 -19.506894 -15.020209 2.643576 12.240562 -37.311438 0.776482 2.794199 -31.054135 0.023322 0.502383 -5.317622 0.000001 -0.000000 -0.000000 39.768230 -2.142272 -22.520556 -4.707987 18.448025 22.713079 -9.811125 9.787054 22.898933 0.000002 -0.000001 0.000001 2.643576 12.240560 -37.311428 0.964079 3.084007 -34.711807 -0.189925 0.315337 -21.391220 0.000001 0.000001 -0.000000 0.888621 9.977802 -37.242279 0.776459 2.794212 -31.054148 0.023327 0.502388 -5.317618 -0.000001 0.000001 -0.000001 -8.625904 -3.094380 -36.656000 0.754030 2.756654 -30.590870 1.331795 3.555861 -41.054802 0.000000 -0.000001 0.000001 18.311840 13.497352 -7.979220 -29.294767 10.278201 43.681611 -39.189331 60.005903 40.512120 -15.081135 -0.977426 14.319042 2.643579 -12.240567 37.311431 0.964086 -3.084022 34.711817 0.211644 -1.499703 16.063980 -0.000001 -0.000000 -0.000001 40.083891 0.941036 20.760333 5.154122 -21.099001 -19.107733 4.783951 -12.453634 -21.492971 0.000003 0.000001 -0.000003 18.319327 0.104714 38.988489 -5.917310 8.014244 32.567664 -0.150374 0.736061 10.651562 -0.000000 0.000002 0.000001 0.888608 -9.977799 37.242276 0.776481 -2.794216 31.054141 0.023328 -0.502383 5.317621 -0.000000 -0.000000 -0.000001 -8.625907 3.094375 36.655993 0.752232 -2.753608 30.591116 1.347044 -3.573332 41.053566 0.000003 -0.000000 0.000002 -38.808609 1.194444 25.941444 50.423810 -4.771478 -8.663233 -11.384202 -8.301833 -8.861131 -3.774733 -12.898128 -1.581008 -0.000000 0.000000 0.000000 -42.130304 -11.495971 -22.258579 51.227795 5.648822 -2.816757 -10.582898 3.535066 11.834126 -6.187440 9.601355 11.780001 0.000000 -0.000000 0.000001 
-0.215950 177.582123 -1.333149 -0.279571 0.001367 -1.111737 16.586909 0.260297 0.372886 20.119791 0.473604 0.889607 12.592563 0.365017 0.921522 2.969930 -0.921940 0.122836 -21.725792 3.034049 -1.447968 0.000001 -0.000000 0.000000 0.000001 -0.000000 0.000000 0.000001 -0.000000 0.000000 20.442830 -17.641660 8.642614 -33.464539 -17.400921 -36.941710 -2.666587 -52.196633 -20.401061 -54.781140 -19.510213 -15.027644 2.643688 12.240744 -37.310711 0.776455 2.794189 -31.053947 0.023335 0.502433 -5.318050 -0.000000 -0.000000 0.000002 39.768510 -2.142102 -22.519906 -4.709024 18.447598 22.714025 -9.811532 9.787430 22.899044 0.000001 -0.000001 0.000002 2.643683 12.240751 -37.310707 0.964068 3.083998 -34.711622 -0.189917 0.315381 -21.391644 -0.000006 -0.000001 -0.000002 0.888737 9.977934 -37.241559 0.776460 2.794196 -31.053950 0.023335 0.502429 -5.318049 -0.000004 0.000001 -0.000001 -8.630201 -3.089680 -36.677033 0.755012 2.758317 -30.611330 1.333057 3.557310 -41.075306 0.000000 0.000001 0.000003 18.325526 13.535207 -7.955974 -29.258877 10.246687 43.661018 -39.151437 59.998943 40.471883 -15.111273 -0.938563 14.362815 2.643697 -12.240753 37.310701 0.964073 -3.084003 34.711626 0.211649 -1.499747 16.064415 0.000001 0.000001 -0.000003 40.084150 0.940833 20.759687 5.155085 -21.099197 -19.107968 4.784196 -12.454144 -21.492903 0.000000 -0.000001 0.000004 18.320198 0.104838 38.987843 -5.917345 8.014437 32.567507 -0.150387 0.736027 10.651997 0.000001 -0.000002 0.000000 0.888718 -9.977931 37.241545 0.776466 -2.794200 31.053954 0.023328 -0.502417 5.318049 -0.000002 0.000001 0.000003 -8.630215 3.089680 36.677050 0.753269 -2.755346 30.611566 1.348385 -3.574844 41.074049 0.000002 0.000002 0.000001 -38.780124 1.194817 25.981369 50.416068 -4.799153 -8.691746 -11.381255 -8.305839 -8.842203 -3.774738 -12.898146 -1.581012 0.000000 0.000000 0.000000 -42.092400 -11.533994 -22.265273 51.222929 5.683109 -2.811711 -10.593963 3.531647 11.823836 -6.187396 9.601356 11.780035 0.000000 0.000000 -0.000000 
-0.228120 177.589218 -1.321607 -0.320864 0.002131 -1.129910 16.586882 0.260784 0.374090 20.119922 0.467520 0.872998 12.592436 0.375227 0.905799 2.934539 -0.940378 0.091137 -21.731934 3.004781 -1.433608 -0.000001 0.000000 -0.000000 -0.000001 0.000000 -0.000000 -0.000001 0.000000 -0.000000 20.426055 -17.656242 8.520845 -33.295830 -17.539309 -37.091899 -2.710062 -52.271458 -20.399270 -54.770389 -19.519029 -15.060244 2.643909 12.241099 -37.309471 0.776418 2.794143 -31.053435 0.023352 0.502539 -5.319215 0.000003 -0.000000 0.000000 39.769193 -2.141667 -22.518374 -4.699739 18.438405 22.706095 -9.812486 9.788321 22.899280 0.000000 -0.000001 0.000002 2.643900 12.241109 -37.309468 0.964028 3.083956 -34.711110 -0.189924 0.315487 -21.392803 -0.000000 0.000000 -0.000002 0.888953 9.978193 -37.240326 0.776423 2.794151 -31.053417 0.023341 0.502536 -5.319212 -0.000001 0.000000 -0.000001 -8.641707 -3.074214 -36.738891 0.757917 2.763219 -30.671671 1.336806 3.561610 -41.135702 0.000004 -0.000002 -0.000003 18.350331 13.589209 -7.916544 -29.211462 10.212097 43.647064 -39.024802 59.958857 40.334173 -15.164179 -0.842448 14.449805 2.643915 -12.241108 37.309468 0.964037 -3.083964 34.711093 0.211682 -1.499849 16.065575 0.000001 0.000002 -0.000001 40.084837 0.940395 20.758162 5.153246 -21.086327 -19.105888 4.784753 -12.455286 -21.492725 0.000000 -0.000000 0.000003 18.321311 0.104686 38.986791 -5.917566 8.014974 32.567069 -0.150406 0.735915 10.653151 0.000001 0.000000 0.000000 0.888947 -9.978196 37.240309 0.776426 -2.794149 31.053438 0.023345 -0.502543 5.319212 -0.000001 -0.000001 -0.000000 -8.641705 3.074222 36.738881 0.762406 -2.770775 30.671043 1.360139 -3.588240 41.133834 0.000000 -0.000001 0.000001 -38.727500 1.196920 26.032749 50.398682 -4.837884 -8.732858 -11.379403 -8.306473 -8.818763 -3.774741 -12.898134 -1.581013 -0.000000 0.000000 0.000000 -42.043004 -11.586886 -22.276908 51.222327 5.735762 -2.798468 -10.610030 3.525393 11.795896 -6.187363 9.601369 11.780084 0.000001 -0.000000 0.000001 
-0.249552 177.602448 -1.302553 -0.367687 0.007265 -1.148993 16.586899 0.261321 0.375420 20.119873 0.473502 0.856396 12.592334 0.384257 0.890871 2.893872 -0.964669 0.026219 -21.753908 2.956215 -1.413063 -0.000001 0.000000 -0.000000 -0.000001 0.000000 -0.000000 -0.000001 0.000000 -0.000000 20.401992 -17.676820 8.361155 -33.105264 -17.717309 -37.279152 -2.767197 -52.337561 -20.386057 -54.754099 -19.528397 -15.117179 2.644063 12.241320 -37.309246 0.776394 2.794084 -31.052670 0.023364 0.502703 -5.320895 -0.000000 -0.000001 0.000000 39.770115 -2.141260 -22.516530 -4.683568 18.426874 22.692171 -9.813419 9.789279 22.899492 0.000000 0.000003 -0.000002 2.644058 12.241325 -37.309256 0.963997 3.083897 -34.710335 -0.189905 0.315658 -21.394483 -0.000002 -0.000000 -0.000003 0.889096 9.978375 -37.240094 0.776400 2.794085 -31.052676 0.023359 0.502698 -5.320897 -0.000004 0.000000 0.000001 -8.657615 -3.045447 -36.838789 0.762660 2.771162 -30.769671 1.342908 3.568571 -41.233876 0.000000 0.000001 0.000005 18.381434 13.642777 -7.869596 -29.179507 10.188865 43.666352 -38.784563 59.872441 40.074882 -15.227425 -0.703376 14.627159 2.644071 -12.241318 37.309253 0.964003 -3.083903 34.710332 0.211732 -1.500007 16.067253 0.000001 -0.000001 -0.000001 40.085755 0.939965 20.756328 5.147673 -21.067638 -19.102371 4.785312 -12.456529 -21.492531 -0.000001 0.000000 -0.000002 18.320140 0.103316 38.986641 -5.917897 8.015803 32.566444 -0.150433 0.735744 10.654842 -0.000001 -0.000001 0.000001 0.889077 -9.978367 37.240094 0.776398 -2.794091 31.052659 0.023357 -0.502697 5.320895 0.000000 0.000002 -0.000001 -8.657632 3.045449 36.838806 0.777385 -2.795883 30.767663 1.379332 -3.610038 41.230946 -0.000003 0.000003 0.000002 -38.667323 1.204208 26.089098 50.371959 -4.872231 -8.780852 -11.367503 -8.299861 -8.789861 -3.774737 -12.898133 -1.581017 0.000000 0.000000 0.000000 -41.979340 -11.636154 -22.274797 51.211508 5.773829 -2.798049 -10.623305 3.521311 11.779804 -6.187428 9.601356 11.779980 0.000001 0.000000 -0.000000 
